# xmcd CD database file
#
# Track frame offsets:
#	150
#	3071
#	21845
#	54894
#	71666
#	100674
#	128680
#	145496
#	167155
#	190827
#	215773
#	233480
#	259093
#
# Disc length: 3842 seconds
#
# Revision: 0
# Processed by: cddbd v1.5.2PL0 Copyright (c) Steve Scherf et al.
# Submitted via: CDex 1.81
#
DISCID=aa0f000d
DTITLE=Lori Andrews and Bart Samolis - Pulling Strings
DYEAR=2008
DGENRE=Jazz
TTITLE0=Urban Legend Intro
TTITLE1=Urban Legend
TTITLE2=Parthenia
TTITLE3=Backtalk
TTITLE4=Squall
TTITLE5=Akoustik Funk
TTITLE6=Jimmy
TTITLE7=Friends
TTITLE8=The Edge
TTITLE9=Four Winds
TTITLE10=Mirrors
TTITLE11=Emerald Bay
TTITLE12=One Step Back
EXTD=YEAR: 2008
EXTT0=
EXTT1=
EXTT2=
EXTT3=
EXTT4=
EXTT5=
EXTT6=
EXTT7=
EXTT8=
EXTT9=
EXTT10=
EXTT11=
EXTT12=
PLAYORDER=
